<svg xmlns="http://www.w3.org/2000/svg" width="256.75" height="58.14" viewBox="-1.04 -1.386 256.75 58.14"><path fill="#373435" d="M245.676 5.438V.261h-1.87v-.647h4.602v.647h-1.941v5.177h-.791zm3.164 0V-.386h1.151l1.366 4.099c.144.36.216.647.288.863.072-.216.216-.503.288-.935l1.438-4.027h1.007v5.824h-.719V.548l-1.726 4.89h-.647L249.632.476v4.962h-.792z"/><path fill="none" d="M234.779 48.319l-.94 4.798h6.653V.414H.839v52.703H171.43l.94-4.798h62.409zm-95.963-.8H7.13V6.011h227.359v41.508h-95.673z"/><path fill="#3F3F89" d="M138.816 6.011H7.13v41.508h131.686l7.449-41.508z"/><path fill="#F1623B" d="M146.265 6.011l-7.449 41.508h95.673V6.011z"/><g fill="#2E3A56"><path d="M.043-.386v54.302h171.243l.144-.8H.839V.414h239.653v52.702h-6.653l-.145.8h7.593V-.386z"/><path d="M190.811 51.59H190.305c-.072 0-.072.073-.145.073l-.072.073-1.519 1.381-.145.145v-.145l.651-3.199v-.073h-.072s0-.073-.072-.073h-.362l-.072.073h-.072v.073l-.651 3.199-.145.8-.289 1.527v.073h.58s0-.073.072-.073l.289-1.527.145-.582.289.582.868 1.454v.073l.072.073h.579c.072 0 .072-.073.072-.073v-.073-.073s0-.073-.072-.145l-.723-1.236-.362-.582.217-.218 1.374-1.163.145-.145v-.073-.073s-.002-.073-.074-.073zM180.687 51.808a1.002 1.002 0 0 0-.289-.218c-.145 0-.289-.073-.434-.073-.145 0-.289.073-.434.073l-.434.218c-.145.145-.217.218-.362.291-.072.145-.145.218-.217.291 0-.073 0-.218-.072-.363 0-.073-.072-.145-.145-.218s-.145-.145-.289-.218c-.145-.073-.289-.073-.434-.073-.145 0-.289.073-.434.073l-.434.218c-.072.145-.217.218-.289.291-.145.145-.217.218-.217.291l.145-.654v-.073l-.072-.073h-.072-.362l-.072.073v.073l-.289 1.381-.145.8-.362 1.527h.072v.073h.579v-.073h.072l.289-1.527v-.145l.217-.654c.145-.218.217-.363.362-.509.145-.145.289-.291.434-.363.145-.073.289-.145.434-.145.145 0 .289.073.362.145 0 .145.072.218.072.436v.218c0 .073 0 .145-.072.218l-.145.8-.289 1.527s0 .073.072.073H177.939c.072 0 .072-.073.072-.073l.289-1.527.072-.145c.072-.218.072-.436.217-.654.072-.218.217-.363.362-.509.145-.145.217-.291.362-.363.217-.073.289-.145.434-.145.217 0 .289.073.362.145.072.145.145.291.145.436 0 .073-.072.145-.072.218v.218l-.145.8-.289 1.527v.073h.58s0-.073.072-.073l.289-1.527.217-.8c.072-.145.072-.218.072-.291v-.291c0-.145 0-.291-.072-.363a.409.409 0 0 0-.219-.367zM199.416 51.59h-.145H198.836c0 .073 0 .073-.072.073v.073l-.289 1.381-.145.8-.289 1.527s0 .073.072.073H198.619l.072-.073.289-1.527.217-.8.217-1.381v-.073s.002 0 .002-.073zM194.716 51.808c-.072-.073-.217-.145-.362-.218-.217 0-.362-.073-.579-.073-.289 0-.506.073-.723.145a1.586 1.586 0 0 0-.579.363c-.145.073-.289.291-.434.436-.072.218-.217.363-.289.582v.073c-.072.218-.145.363-.145.509 0 .145 0 .218-.072.291v.291c0 .218.072.436.072.654.072.145.217.291.289.363.145.145.289.218.506.291.145.073.362.073.579.073h.434c.145-.073.289-.073.362-.073.145-.073.217-.073.289-.073.072-.073.145-.073.217-.145v-.073c.072 0 .072-.073.072-.145v-.073c0-.073.072-.073.072-.073 0-.073-.072-.073-.072-.145-.072 0-.072 0-.145.073-.072 0-.145 0-.289.073-.072 0-.217.073-.362.073h-.434c-.289 0-.579-.073-.651-.145-.145-.145-.217-.363-.217-.654v-.218-.073c0-.073 0-.145.072-.218h.362c.434 0 .795 0 1.085-.073s.506-.145.723-.291c.072-.073.145-.145.289-.218 0 0 .072-.073.072-.145.145-.145.145-.291.145-.509 0-.073 0-.218-.072-.291.002-.146-.143-.219-.215-.364zm-1.157 1.308c-.217.073-.434.073-.723.073h-.434l.072-.073c0-.073.072-.218.145-.363.072-.145.145-.218.217-.363.145-.073.289-.145.362-.218.145-.073.289-.073.506-.073s.362 0 .434.073a.4.4 0 0 1 .217.363c0 .073-.072.145-.072.291-.072.073-.145.145-.289.145a.549.549 0 0 1-.362.145h-.073zM186.11 51.59h-.506c0 .073-.072.073-.072.145l-.072.363c-.145-.218-.289-.291-.434-.436-.217-.073-.434-.145-.651-.145-.217 0-.434.073-.651.145-.217.073-.362.218-.506.363a2.2 2.2 0 0 0-.362.509c-.072.218-.217.363-.217.582-.072.218-.145.436-.145.582-.072.073-.072.145-.072.218v.363c0 .145 0 .291.072.436 0 .218.072.363.145.436.072.145.217.218.362.291.145.073.289.145.506.145.145 0 .362 0 .506-.073l.434-.218.289-.291c.072-.145.145-.218.217-.291l-.145.727c0 .073 0 .073.072.073H185.314c.072 0 .072-.073.072-.073l.289-1.527.217-.8.217-1.381v-.073s.001.003.001-.07zm-.94 1.745a5.084 5.084 0 0 1-.217.582c0 .073 0 .073-.072.073-.072.218-.145.436-.289.582a1.528 1.528 0 0 1-.434.291c-.145.073-.289.145-.434.145-.145 0-.217 0-.289-.073s-.145-.073-.217-.218c0-.073-.072-.145-.072-.218v-.291-.291-.145c0-.145.072-.291.145-.436 0-.073 0-.145.072-.218 0-.073 0-.145.072-.218l.217-.436c.072-.073.217-.145.289-.218.145-.073.289-.145.434-.145.145 0 .362.073.506.145.145.073.289.218.434.436l-.145.436v.217zM199.633 50.063h-.362c-.072 0-.145.073-.145.073l-.145.145c0 .073 0 .145-.072.218v.145c0 .073 0 .145.072.145l.072.073h.434c.072 0 .072-.073.145-.073 0 0 .072-.073.072-.145.072 0 .072-.073.072-.145v-.218-.145c-.07 0-.07-.073-.143-.073zM218.218 51.59h-.579v.073c-.072 0-.072 0-.072.073l-.289 1.381-.145.8-.289 1.527.072.073H217.422c.072 0 .072-.073.072-.073h.072l.289-1.527.145-.8.289-1.381v-.073c-.071 0-.071 0-.071-.073zM223.064 52.317c0-.145-.072-.218-.072-.291-.072-.073-.145-.218-.217-.291-.072-.073-.217-.073-.289-.145-.145-.073-.289-.073-.434-.073-.145 0-.289.073-.434.073l-.434.218c-.145.145-.217.218-.362.291-.072.145-.145.218-.145.291v-.145c.072-.073.072-.145.072-.218 0-.073.072-.145.072-.218s.072-.145.072-.218l.289-1.672v-.073c-.072 0-.072-.073-.145-.073h-.29c-.072 0-.072.073-.145.073h-.072v.073l-.651 3.199-.145.8-.289 1.527v.073h.506c.072 0 .072-.073.072-.073l.072-.363c.145.145.289.291.506.363.145.073.362.145.579.145.289 0 .506-.073.651-.145.217-.073.362-.218.506-.363.145-.145.289-.291.362-.509.145-.145.217-.363.289-.582v-.073c.072-.145.072-.363.145-.509v-.291-.218-.291c0-.073.003-.219-.069-.292zm-.651 1.018c0 .218-.072.363-.072.509l-.072.073c0 .145-.072.218-.145.363-.072.145-.145.291-.217.363-.072.145-.217.218-.289.291-.145.073-.289.073-.434.073-.145 0-.289-.073-.434-.145-.217-.073-.289-.218-.434-.436l.072-.509.072-.145c0-.218.072-.436.217-.654.072-.218.217-.363.362-.509a.868.868 0 0 1 .362-.363c.217-.073.362-.145.506-.145.072 0 .217.073.289.073.072.073.145.145.145.218.072.073.072.218.072.291s.072.145.072.218-.072.145-.072.218v.216zM218.435 50.063h-.362c-.072 0-.145.073-.145.073l-.145.145v.218c-.072.073-.072.145-.072.145 0 .073.072.145.072.145s.072.073.145.073h.362c.072 0 .145-.073.145-.073.072 0 .072-.073.072-.145.072 0 .072-.073.072-.145v-.218-.145c-.071 0-.071-.073-.144-.073zM226.101 49.845l-.072-.073h-.362l-.072.073h-.072v.073l-.651 3.199-.145.8-.362 1.527h.072v.073h.579v-.073h.072l.289-1.527.145-.8.651-3.199v-.073h-.072zM203.177 51.59h-.94l.145-.872v-.073h-.072l-.072-.073h-.29c-.072.073-.145.073-.145.073h-.072v.073l-.217.872h-.506s-.072 0-.072.073l-.072.073v.145c-.072.073-.072.145-.072.145 0 .073.072.073.072.145h.578l-.217.945-.145.8-.072.363v.073c0 .073 0 .073-.072.145V54.715c0 .145 0 .291.072.363.072.145.072.218.145.291s.217.145.289.145c.145.073.289.073.434.073h.145c.073 0 .145-.073.217-.073h.145l.072-.073.072-.073c0-.073 0-.073.072-.145V55.005v-.073c0-.073-.072-.073-.072-.073s-.072 0-.072.073h-.072c-.072 0-.145.073-.145.073h-.217c-.145 0-.217-.073-.289-.073-.072-.073-.072-.218-.072-.363v-.145-.218l.072-.291.145-.8.217-.945h1.012l.072-.073v-.073l.072-.073v-.145-.146c-.001-.07-.073-.07-.073-.07zM209.468 51.59h-.145H208.888l-.072.073v.073c-.145.291-.217.582-.362.872-.072.218-.145.363-.217.509 0 .073-.072.145-.072.291-.072.145-.217.363-.289.509 0 .073-.072.145-.072.145-.145.218-.289.509-.434.727h-.072l-.072-.872-.145-.8-.217-1.381v-.073s0-.073-.072-.073H206.286c0 .073-.072.073-.072.073V51.882l.217 1.236.145.8.217 1.454v.073s0 .073.072.073h.579c.072 0 .072 0 .072-.073.072 0 .072 0 .072-.073.217-.218.434-.509.651-.8.072-.218.217-.436.362-.654 0-.073.072-.145.145-.218.072-.218.145-.363.217-.582a.559.559 0 0 0 .145-.363c.145-.291.289-.582.362-.872v-.145c.072 0 .072 0 .072-.073h-.072l-.002-.075zM211.927 50.063h-.362c-.072 0-.145.073-.145.073-.072.073-.072.073-.072.145-.072.073-.072.145-.072.218v.29c.072 0 .072.073.145.073h.362c.072 0 .145-.073.145-.073.072 0 .072-.073.145-.145v-.145c.072-.073.072-.145.072-.218s-.072-.073-.072-.145c-.001 0-.074-.073-.146-.073zM215.543 51.663c-.072 0-.145 0-.217-.073h-.289c-.072-.073-.145-.073-.289-.073-.217 0-.362.073-.579.073a1.11 1.11 0 0 0-.434.291c-.145.145-.289.291-.362.436-.072.145-.072.291-.072.509 0 .073 0 .218.072.291v.145c.072.073.217.145.289.218.145.145.217.145.362.218s.217.145.362.218h.072c.072.073.145.145.217.145 0 .073.072.218.072.291 0 .073 0 .218-.072.291 0 .073-.072.145-.145.218s-.145.073-.289.145c-.072 0-.217.073-.362.073s-.289-.073-.434-.073c-.072-.073-.217-.073-.289-.145-.072 0-.072-.073-.145-.073-.072-.073-.072-.073-.145-.073-.072 0-.072.073-.072.073v.073c-.072 0-.072.073-.072.073v.291l.072.073s.072.073.145.073c.072.073.145.073.217.145.072 0 .217 0 .289.073h.362c.289 0 .506 0 .723-.073.145-.073.362-.218.506-.291.145-.145.217-.291.289-.436.072-.145.145-.363.145-.509 0-.145-.072-.291-.072-.363l-.072-.073a.57.57 0 0 0-.289-.291c-.072-.073-.217-.145-.289-.218-.145-.073-.289-.145-.362-.218h-.072c-.072 0-.145-.073-.217-.145-.072-.073-.145-.145-.145-.291 0-.073.072-.145.072-.218s.072-.145.145-.218c.072-.073.145-.073.217-.145.145 0 .217-.073.362-.073.072 0 .217.073.289.073.072 0 .145.073.217.073.072.073.145.073.217.073 0 .073.072.073.072.073.072 0 .072 0 .072-.073l.072-.073v-.145c.072-.073.072-.073.072-.145l-.072-.073c0-.075-.072-.075-.144-.147zM211.71 51.59H211.204l-.072.073v.073l-.289 1.381-.217.8-.289 1.527c.072 0 .072.073.072.073H210.915c.072 0 .072-.073.072-.073h.072l.289-1.527.145-.8.289-1.381v-.073s-.072 0-.072-.073zM230.223 51.808l-.434-.218c-.145 0-.362-.073-.579-.073s-.506.073-.723.145c-.217.073-.362.218-.579.363-.145.073-.289.291-.362.436a2.148 2.148 0 0 0-.289.582s0 .073-.072.073c0 .218-.072.363-.072.509-.072.145-.072.218-.072.291v.291c0 .218 0 .436.072.654.072.145.145.291.289.363.145.145.289.218.434.291.217.073.434.073.651.073h.434c.072-.073.217-.073.362-.073.072-.073.217-.073.289-.073.072-.073.145-.073.145-.145.072 0 .072 0 .072-.073 0 0 .072-.073.072-.145v-.073-.073-.145h-.072s-.072 0-.145.073c-.072 0-.145 0-.217.073-.145 0-.217.073-.362.073h-.506a1.45 1.45 0 0 1-.651-.145c-.145-.145-.217-.363-.217-.654 0-.073 0-.145.072-.218v-.073-.218h.434c.434 0 .723 0 1.012-.073s.579-.145.723-.291a.988.988 0 0 0 .289-.218c.072 0 .072-.073.145-.145.072-.145.145-.291.145-.509 0-.073-.072-.218-.072-.291-.072-.146-.144-.219-.216-.364zm-1.23 1.308c-.145.073-.434.073-.651.073h-.434v-.073c.072-.145.072-.218.145-.363.072-.145.217-.218.289-.363.072-.073.217-.145.362-.218.145-.073.289-.073.434-.073.217 0 .362 0 .506.073a.559.559 0 0 1 .145.363c0 .073 0 .145-.072.291 0 .073-.145.145-.217.145-.145.073-.289.145-.434.145h-.073z"/></g><g fill="#FEFEFE"><path d="M56.594 34.071l-.217 1.09a4.327 4.327 0 0 0-.145 1.018c0 .291.072.509.217.654.145.145.362.218.723.218.289 0 .506 0 .795-.073.217-.073.506-.145.795-.145l-.723 3.199c-.579.145-1.157.291-1.736.363a7.12 7.12 0 0 1-1.736.218c-.795 0-1.374-.291-1.88-.727-.506-.509-.795-1.09-.795-1.89-.94.872-1.953 1.527-3.11 1.963a10.97 10.97 0 0 1-3.688.654 8.216 8.216 0 0 1-2.386-.363c-.723-.218-1.446-.582-2.025-1.018s-1.012-1.018-1.374-1.672c-.362-.727-.506-1.527-.506-2.472 0-1.236.217-2.254.723-3.126.434-.872 1.085-1.527 1.88-2.108.723-.582 1.663-.945 2.676-1.236 1.012-.218 2.097-.436 3.182-.509 1.519-.073 2.965-.218 4.411-.363.868 0 1.446-.291 1.808-.8.362-.436.579-1.09.579-1.817 0-1.018-.362-1.599-1.012-1.963a5.791 5.791 0 0 0-2.386-.509c-1.229 0-2.314.218-3.254.654-.868.436-1.446 1.308-1.808 2.544h-4.194c.217-1.236.651-2.326 1.229-3.126.579-.872 1.302-1.599 2.097-2.108a8.88 8.88 0 0 1 2.82-1.163c1.085-.218 2.169-.291 3.399-.291 1.808 0 3.254.145 4.267.509s1.736.8 2.242 1.308c.506.436.795 1.018.868 1.527.145.509.145.945.145 1.308 0 .945-.072 1.963-.362 3.126l-1.519 7.126zm-13.378.363c0 .436.145.872.362 1.236.217.363.506.654.868.8.289.218.723.363 1.085.436.434.145.868.145 1.302.145 1.085 0 1.953-.145 2.748-.509.723-.363 1.302-.945 1.808-1.599s.868-1.381 1.157-2.181c.217-.872.434-1.817.579-2.762l-.072-.073c-.289.291-.723.509-1.229.654-.506.145-1.012.218-1.519.291-.651.073-1.374.073-2.169.145-.795.073-1.591.218-2.314.436-.723.218-1.302.582-1.808 1.018s-.798 1.091-.798 1.963zM64.259 19.677h4.194l-.651 2.98.072.073c.795-1.163 1.808-2.035 3.037-2.617 1.229-.654 2.531-.945 3.905-.945 2.025 0 3.543.436 4.484 1.454.94.945 1.374 2.253 1.374 3.925v1.236c0 .436-.072.872-.145 1.236l-2.676 13.012h-4.484l2.603-12.576c.072-.363.145-.654.217-.945.072-.363.072-.654.072-.945v-.727c0-.291-.145-.654-.289-.945-.217-.363-.506-.654-.94-.872s-1.012-.363-1.88-.363-1.663.218-2.314.582c-.723.363-1.302.872-1.88 1.381-.506.582-.94 1.163-1.302 1.963-.434.8-.651 1.599-.868 2.399l-2.242 11.049h-4.484l4.197-20.355zM84.941 19.677h4.194l-.651 2.98.145.073a7.845 7.845 0 0 1 2.965-2.617c1.229-.654 2.531-.945 3.977-.945 2.025 0 3.471.436 4.411 1.454.94.945 1.446 2.253 1.446 3.925 0 .363 0 .727-.072 1.236 0 .436-.072.872-.145 1.236l-2.676 13.012h-4.411l2.531-12.576c.072-.363.145-.654.217-.945.072-.363.072-.654.072-.945v-.727c0-.291-.072-.654-.289-.945-.145-.363-.506-.654-.868-.872-.434-.218-1.085-.363-1.88-.363-.868 0-1.663.218-2.386.582a8.493 8.493 0 0 0-1.808 1.381c-.579.582-1.012 1.163-1.374 1.963-.362.8-.651 1.599-.868 2.399l-2.242 11.049h-4.411l4.123-20.355zM121.678 33.707c-.723 2.472-1.88 4.144-3.543 5.234s-3.76 1.672-6.219 1.672a9.876 9.876 0 0 1-3.543-.654 7.091 7.091 0 0 1-2.82-1.745 7.633 7.633 0 0 1-1.808-2.835c-.434-1.09-.651-2.326-.651-3.707 0-1.599.217-3.126.723-4.58a12.524 12.524 0 0 1 2.169-3.998 10.572 10.572 0 0 1 3.543-2.835c1.374-.727 2.965-1.09 4.773-1.09 1.808 0 3.254.291 4.411.872 1.085.654 1.953 1.381 2.603 2.253.579.945 1.012 1.963 1.229 3.053.217 1.09.362 2.108.362 3.126 0 .509 0 .945-.072 1.381-.072.436-.145.8-.145 1.163h-15.114c0 .073-.072.218-.072.291v.945c0 1.454.362 2.544 1.157 3.417.795.945 2.025 1.381 3.688 1.381 1.229 0 2.242-.291 3.11-.8.868-.654 1.446-1.454 1.736-2.544h4.483zm-3.255-5.67v-.291V26.801c0-1.236-.362-2.181-1.085-2.98-.795-.727-1.808-1.163-3.11-1.163-1.663 0-3.037.509-3.977 1.527-1.012 1.018-1.736 2.326-2.242 3.853h10.414zM127.174 19.677h4.194l-.795 3.998.072.073c.289-.582.651-1.09 1.157-1.672a13.69 13.69 0 0 1 1.446-1.454 9.19 9.19 0 0 1 1.808-1.09c.651-.218 1.302-.363 2.025-.363h1.012c.362 0 .723.073 1.085.073l-.94 4.289c-.217-.073-.506-.073-.723-.073-.289-.073-.579-.073-.795-.073-1.157 0-2.169.218-2.965.582a7.21 7.21 0 0 0-2.169 1.672c-.579.727-1.085 1.527-1.446 2.472-.362.872-.651 1.89-.868 2.908l-1.88 9.014h-4.411l4.193-20.356zM19.135 12.263h11.86c1.88 0 3.327.218 4.411.727s1.953 1.09 2.459 1.745c.579.654.94 1.381 1.085 2.108.145.8.217 1.381.217 1.89 0 .8-.145 1.599-.362 2.326s-.579 1.454-1.085 2.035a4.9 4.9 0 0 1-1.736 1.454 7.075 7.075 0 0 1-2.169.8v.073c2.82.872 4.194 2.835 4.194 5.815 0 .727-.145 1.599-.434 2.544-.289 1.018-.795 1.963-1.591 2.98-.795.945-1.88 1.672-3.182 2.326-1.374.654-3.11.945-5.207.945H13.422l5.713-27.768zm-.073 23.843h6.942c.362 0 .94-.073 1.736-.073.723 0 1.446-.218 2.242-.509.795-.218 1.446-.654 2.097-1.236.579-.582.94-1.454 1.012-2.617.072-.291.072-.727 0-1.236 0-.509-.217-.945-.506-1.454-.362-.436-.868-.8-1.519-1.163-.723-.291-1.663-.436-2.893-.436H20.87l-1.808 8.724zm2.531-12.285h7.159c1.229 0 2.169-.145 2.893-.436.723-.291 1.302-.654 1.663-1.163.362-.436.651-.945.795-1.381.072-.509.145-.945.145-1.308 0-.291 0-.654-.072-1.018s-.289-.727-.579-1.09-.723-.654-1.229-.872c-.579-.218-1.374-.363-2.314-.363h-6.87l-1.591 7.631z"/></g><g fill="#FEFEFE"><path d="M187.629 40.032h-4.122l.651-2.908-.072-.073a8.846 8.846 0 0 1-3.037 2.617c-1.229.582-2.531.945-3.905.945-2.025 0-3.471-.509-4.411-1.454-.94-.945-1.446-2.254-1.446-3.925 0-.363 0-.8.072-1.236 0-.509.072-.945.145-1.308l2.676-12.794h4.339l-2.531 12.431c-.072.291-.145.654-.217.945-.072.291-.072.582-.072.872v.727c0 .291.145.654.289.945.217.436.506.727.868.945.434.218 1.085.363 1.88.363.868 0 1.663-.218 2.386-.582.723-.363 1.374-.945 1.88-1.527.579-.582 1.012-1.236 1.374-2.035.362-.727.579-1.454.795-2.181l2.169-10.904h4.411l-4.122 20.137zM193.848 19.896h15.982l-.723 3.271-13.162 13.375h11.354l-.723 3.49h-17.284l.724-3.272 13.161-13.375h-10.124zM212.867 19.896h15.982l-.723 3.271-13.162 13.375h11.281l-.723 3.49h-17.211l.723-3.272 13.089-13.375h-10.051zM151.616 12.263h11.932c1.808 0 3.254.218 4.339.727 1.012.509 1.88 1.09 2.386 1.745.579.654.94 1.381 1.085 2.108.145.8.217 1.381.217 1.89 0 .8-.072 1.599-.362 2.326-.217.727-.579 1.454-1.085 2.035-.434.582-1.012 1.09-1.663 1.454s-1.374.654-2.169.8v.073c2.748.872 4.122 2.835 4.122 5.815 0 .727-.145 1.599-.434 2.544-.289 1.018-.795 1.963-1.519 2.98-.795.945-1.808 1.672-3.182 2.326-1.374.654-3.11.945-5.207.945h-14.174l5.714-27.768zm-.072 23.843h6.942c.362 0 .94-.073 1.736-.073.723 0 1.446-.218 2.242-.509.795-.218 1.446-.654 2.097-1.236.579-.582.94-1.454 1.012-2.617.072-.291.072-.727 0-1.236 0-.509-.217-.945-.506-1.454-.362-.436-.868-.8-1.519-1.163-.723-.291-1.663-.436-2.893-.436h-7.304l-1.807 8.724zm2.531-12.285h7.232c1.157 0 2.097-.145 2.82-.436.723-.291 1.302-.654 1.663-1.163.362-.436.651-.945.795-1.381.145-.509.145-.945.145-1.308 0-.291 0-.654-.072-1.018-.072-.363-.289-.727-.579-1.09s-.651-.654-1.229-.872-1.374-.363-2.314-.363h-6.87l-1.591 7.631z"/></g></svg>